<?xml version="1.0" encoding="utf-8"?>
<!-- Generator: Adobe Illustrator 22.1.0, SVG Export Plug-In . SVG Version: 6.00 Build 0)  -->
<svg version="1.1" id="レイヤー_1" xmlns="http://www.w3.org/2000/svg" xmlns:xlink="http://www.w3.org/1999/xlink" x="0px"
	 y="0px" width="350px" height="350px" viewBox="0 0 350 350" style="enable-background:new 0 0 350 350;" xml:space="preserve">
<path d="M276.4,70H73.5C56,70,41.8,84.2,41.8,101.7V248c0,17.5,14.2,31.7,31.7,31.7h202.9c17.5,0,31.7-14.2,31.7-31.7V101.7
	C308.1,84.2,293.9,70,276.4,70z M73.5,97.2h202.9c2.5,0,4.5,2,4.5,4.5v12.9l-106,71.9l-106-71.9v-12.9C68.9,99.2,71,97.2,73.5,97.2z
	 M276.4,252.6H73.5c-2.5,0-4.5-2-4.5-4.5V147.5l98.4,66.8c2.3,1.5,4.9,2.3,7.6,2.3c2.7,0,5.4-0.8,7.6-2.3l98.4-66.8V248
	C280.9,250.5,278.9,252.6,276.4,252.6z"/>
</svg>
