<?xml version="1.0" encoding="utf-8"?>
<!-- Generator: Adobe Illustrator 15.0.0, SVG Export Plug-In . SVG Version: 6.00 Build 0)  -->
<!DOCTYPE svg PUBLIC "-//W3C//DTD SVG 1.1//EN" "http://www.w3.org/Graphics/SVG/1.1/DTD/svg11.dtd">
<svg version="1.1" id="レイヤー_1" xmlns="http://www.w3.org/2000/svg" xmlns:xlink="http://www.w3.org/1999/xlink" x="0px"
	 y="0px" width="350px" height="350px" viewBox="0 0 350 350" enable-background="new 0 0 350 350" xml:space="preserve">
<g>
</g>
<g>
	<path d="M174.4,75.939c-57.251,0-103.664,46.413-103.664,103.668c0,57.251,46.413,103.664,103.664,103.664
		c57.252,0,103.665-46.413,103.665-103.664C278.064,122.352,231.652,75.939,174.4,75.939z M224.68,148.874l-30.733,30.733
		l30.733,30.733c5.397,5.397,5.397,14.149,0.001,19.548c-5.398,5.397-14.151,5.396-19.549,0l-30.732-30.734l-30.732,30.732
		c-5.397,5.397-14.15,5.398-19.548,0.001s-5.397-14.151,0-19.548l30.732-30.732l-30.731-30.732c-5.398-5.398-5.398-14.15,0-19.548
		c5.396-5.397,14.148-5.397,19.547,0l30.732,30.732l30.732-30.733c5.398-5.398,14.15-5.398,19.549,0
		C230.077,134.724,230.077,143.476,224.68,148.874z"/>
</g>
</svg>
