<?xml version="1.0" encoding="utf-8"?>
<!-- Generator: Adobe Illustrator 15.0.0, SVG Export Plug-In . SVG Version: 6.00 Build 0)  -->
<!DOCTYPE svg PUBLIC "-//W3C//DTD SVG 1.1//EN" "http://www.w3.org/Graphics/SVG/1.1/DTD/svg11.dtd">
<svg version="1.1" id="レイヤー_1" xmlns="http://www.w3.org/2000/svg" xmlns:xlink="http://www.w3.org/1999/xlink" x="0px"
	 y="0px" width="350px" height="350px" viewBox="0 0 350 350" enable-background="new 0 0 350 350" xml:space="preserve">
<path d="M287.005,252.651l-50.836-49.855c8.47-14.49,13.331-31.335,13.331-49.296c0-54.038-43.963-98-98-98
	c-54.038,0-98,43.962-98,98c0,54.037,43.962,98,98,98c17.969,0,34.821-4.866,49.316-13.343l51.179,50.191
	c4.866,4.772,11.187,7.151,17.503,7.151c6.479,0,12.956-2.504,17.851-7.495C297.017,278.146,296.862,262.318,287.005,252.651z
	 M83.5,153.5c0-37.495,30.505-68,68-68s68,30.505,68,68s-30.505,68-68,68S83.5,190.995,83.5,153.5z"/>
</svg>
