<?xml version="1.0" encoding="utf-8"?>
<!-- Generator: Adobe Illustrator 15.0.0, SVG Export Plug-In . SVG Version: 6.00 Build 0)  -->
<!DOCTYPE svg PUBLIC "-//W3C//DTD SVG 1.1//EN" "http://www.w3.org/Graphics/SVG/1.1/DTD/svg11.dtd">
<svg version="1.1" id="レイヤー_1" xmlns="http://www.w3.org/2000/svg" xmlns:xlink="http://www.w3.org/1999/xlink" x="0px"
	 y="0px" width="350px" height="350px" viewBox="0 0 350 350" enable-background="new 0 0 350 350" xml:space="preserve">
<path d="M222.331,129.396c0.379-46.937-37.497-85.431-84.434-85.81c-46.935-0.378-85.424,37.5-85.803,84.439
	c-0.377,46.934,37.499,85.423,84.433,85.805c19.874,0.161,38.216-6.559,52.811-17.898l9.822,9.822l-4.53,4.53l85.009,85.007
	l24.158-24.158l-85.009-85.007l-4.529,4.528l-9.815-9.815C215.508,166.602,222.176,148.777,222.331,129.396z M86.268,128.299
	c0.226-28.095,23.265-50.765,51.357-50.54c28.092,0.227,50.761,23.267,50.535,51.361c-0.227,28.092-23.264,50.763-51.357,50.537
	C108.711,179.428,86.042,156.39,86.268,128.299z"/>
</svg>
