<?xml version="1.0" encoding="utf-8"?>
<!-- Generator: Adobe Illustrator 15.0.0, SVG Export Plug-In . SVG Version: 6.00 Build 0)  -->
<!DOCTYPE svg PUBLIC "-//W3C//DTD SVG 1.1//EN" "http://www.w3.org/Graphics/SVG/1.1/DTD/svg11.dtd">
<svg version="1.1" id="レイヤー_1" xmlns="http://www.w3.org/2000/svg" xmlns:xlink="http://www.w3.org/1999/xlink" x="0px"
	 y="0px" width="350px" height="350px" viewBox="0 0 350 350" enable-background="new 0 0 350 350" xml:space="preserve">
<path d="M173.286,327.383c-8.282,0-15.876-4.076-22.581-12.117c-2.137-2.338-6.231-7.57-25.873-45.756
	c-13.192-25.636-25.274-50.502-35.91-73.905l-11.404-24.708c-0.448-0.97-0.791-1.986-1.023-3.029
	c-0.078-0.349-0.622-2.563-3.72-11.866c-2.867-8.594-4.09-17.785-3.632-27.316C69.01,99.824,79.362,74.773,99.916,54.219
	c20.628-20.628,45.794-31.088,74.799-31.088c28.936,0,54.165,10.31,74.986,30.644c0.064,0.062,0.127,0.125,0.19,0.188
	c19.896,20.134,30.228,45.303,30.71,74.809c0.007,0.401-0.003,0.803-0.028,1.203c-0.941,14.696-3.059,26.171-6.474,35.079
	c-2.984,7.906-7.424,17.996-13.545,30.771l-21.112,45.063c-0.017,0.036-0.034,0.073-0.052,0.109
	c-26.771,55.954-35.282,69.033-39.707,74.177c-0.234,0.271-0.478,0.535-0.73,0.789c-4.632,4.662-8.031,7.319-11.364,8.885
	C183.905,326.578,179.361,327.383,173.286,327.383z M173.205,295.414c0.141,0.158,0.277,0.318,0.411,0.481
	c0.551,0.674,0.995,1.138,1.32,1.447c0.029-0.002,0.057-0.004,0.084-0.005c0.505-0.44,1.227-1.104,2.204-2.071
	c2.443-3.07,10.439-15.665,35.081-67.166l21.113-45.066c0.019-0.039,0.037-0.079,0.056-0.118c5.68-11.852,9.915-21.45,12.587-28.529
	c1.573-4.106,3.601-11.819,4.533-25.717c-0.476-21.503-7.659-39.02-21.947-53.524c-15.211-14.813-32.854-22.015-53.932-22.015
	c-21.051,0-38.58,7.295-53.586,22.301c-14.97,14.97-22.161,32.457-21.984,53.459c0.002,0.311-0.004,0.622-0.021,0.932
	c-0.323,6.005,0.368,11.465,2.112,16.692c2.444,7.342,3.543,10.974,4.11,13.086l10.851,23.511
	c10.472,23.043,22.34,47.466,35.312,72.673C167.786,287.431,172.182,294.076,173.205,295.414z"/>
<circle cx="174.982" cy="128.5" r="24"/>
</svg>
