<?xml version="1.0" encoding="utf-8"?>
<!-- Generator: Adobe Illustrator 15.0.0, SVG Export Plug-In . SVG Version: 6.00 Build 0)  -->
<!DOCTYPE svg PUBLIC "-//W3C//DTD SVG 1.1//EN" "http://www.w3.org/Graphics/SVG/1.1/DTD/svg11.dtd">
<svg version="1.1" id="レイヤー_1" xmlns="http://www.w3.org/2000/svg" xmlns:xlink="http://www.w3.org/1999/xlink" x="0px"
	 y="0px" width="350px" height="350px" viewBox="0 0 350 350" enable-background="new 0 0 350 350" xml:space="preserve">
<g>
	<path d="M286.621,40.576H62.634c-19.299,0-35,15.701-35,35v201.488c0,19.299,15.701,35,35,35h223.987c19.299,0,35-15.701,35-35
		V75.576C321.621,56.277,305.92,40.576,286.621,40.576z M286.621,282.064H62.634c-2.757,0-5-2.243-5-5V120.072h233.987v156.992
		C291.621,279.821,289.378,282.064,286.621,282.064z"/>
	<circle cx="98.439" cy="160.391" r="15"/>
	<circle cx="148.441" cy="160.391" r="15"/>
	<circle cx="198.443" cy="160.391" r="15"/>
	<circle cx="249.446" cy="160.391" r="15"/>
	<circle cx="98.439" cy="201.395" r="15"/>
	<circle cx="148.441" cy="201.395" r="15"/>
	<circle cx="98.439" cy="242.398" r="15"/>
	<circle cx="148.441" cy="242.398" r="15"/>
	<circle cx="198.443" cy="201.395" r="15"/>
	<circle cx="249.446" cy="201.395" r="15"/>
</g>
</svg>
