<?xml version="1.0" encoding="utf-8"?>
<!-- Generator: Adobe Illustrator 15.0.0, SVG Export Plug-In . SVG Version: 6.00 Build 0)  -->
<!DOCTYPE svg PUBLIC "-//W3C//DTD SVG 1.1//EN" "http://www.w3.org/Graphics/SVG/1.1/DTD/svg11.dtd">
<svg version="1.1" id="レイヤー_1" xmlns="http://www.w3.org/2000/svg" xmlns:xlink="http://www.w3.org/1999/xlink" x="0px"
	 y="0px" width="350px" height="350px" viewBox="0 0 350 350" enable-background="new 0 0 350 350" xml:space="preserve">
<g>
</g>
<g>
	<path d="M174.085,151.706c-13.613,0-24.649,11.036-24.649,24.651c0,13.612,11.036,24.648,24.649,24.648
		c13.614,0,24.649-11.036,24.649-24.648C198.734,162.742,187.699,151.706,174.085,151.706z"/>
</g>
<g>
	<path d="M95.085,151.706c-13.613,0-24.649,11.036-24.649,24.651c0,13.612,11.036,24.648,24.649,24.648
		c13.614,0,24.649-11.036,24.649-24.648C119.734,162.742,108.699,151.706,95.085,151.706z"/>
</g>
<g>
	<path d="M254.086,151.706c-13.613,0-24.649,11.036-24.649,24.651c0,13.612,11.036,24.648,24.649,24.648
		s24.648-11.036,24.648-24.648C278.734,162.742,267.699,151.706,254.086,151.706z"/>
</g>
</svg>
