<?xml version="1.0" encoding="utf-8"?>
<!-- Generator: Adobe Illustrator 15.0.0, SVG Export Plug-In . SVG Version: 6.00 Build 0)  -->
<!DOCTYPE svg PUBLIC "-//W3C//DTD SVG 1.1//EN" "http://www.w3.org/Graphics/SVG/1.1/DTD/svg11.dtd">
<svg version="1.1" id="レイヤー_1" xmlns="http://www.w3.org/2000/svg" xmlns:xlink="http://www.w3.org/1999/xlink" x="0px"
	 y="0px" width="350px" height="350px" viewBox="0 0 350 350" enable-background="new 0 0 350 350" xml:space="preserve">
<path d="M335.974,174.95L197.172,36.148c-5.896-5.897-13.737-9.145-22.076-9.145c-8.34,0-16.181,3.248-22.077,9.145L14.217,174.95
	c-5.858,5.857-5.858,15.355,0,21.213c2.929,2.929,6.768,4.394,10.606,4.394s7.678-1.465,10.606-4.394l6.292-6.292L65.27,303.422
	c2.572,12.396,14.058,21.745,26.718,21.745h166.215c12.662,0,24.148-9.35,26.718-21.746l23.548-113.55l6.292,6.292
	c5.857,5.857,15.355,5.857,21.213,0C341.832,190.306,341.832,180.808,335.974,174.95z M183.507,295h-16.823l-7.03-71h30.883
	L183.507,295z M255.994,295.167h-42.357l7.4-74.737c0.675-6.815-1.53-13.586-6.052-18.577c-4.521-4.99-11.041-7.853-17.89-7.853h-44
	c-6.849,0-13.369,2.862-17.89,7.853c-4.521,4.991-6.727,11.762-6.052,18.576l7.4,74.738H94.196L68.732,172.38
	c-0.038-0.866,0.496-2.629,1.007-3.328l103.929-102.61l106.818,102.823c0.483,0.663,0.994,2.312,0.969,3.132L255.994,295.167z"/>
</svg>
