<?xml version="1.0" encoding="utf-8"?>
<!-- Generator: Adobe Illustrator 15.0.0, SVG Export Plug-In . SVG Version: 6.00 Build 0)  -->
<!DOCTYPE svg PUBLIC "-//W3C//DTD SVG 1.1//EN" "http://www.w3.org/Graphics/SVG/1.1/DTD/svg11.dtd">
<svg version="1.1" id="レイヤー_1" xmlns="http://www.w3.org/2000/svg" xmlns:xlink="http://www.w3.org/1999/xlink" x="0px"
	 y="0px" width="350px" height="350px" viewBox="0 0 350 350" enable-background="new 0 0 350 350" xml:space="preserve">
<path d="M142.529,304.493c-9.349,0-18.138-3.641-24.749-10.252l-62.225-62.225c-6.611-6.61-10.251-15.399-10.251-24.748
	c0-9.35,3.641-18.139,10.251-24.749L184.249,53.826c5.679-5.678,14.867-7.691,35.112-7.691c27.216,0,65.241,3.918,66.847,4.085
	c7.059,0.733,12.637,6.312,13.37,13.37c0.088,0.852,2.181,21.118,3.341,42.717c2.469,45.974-1.501,53.794-6.947,59.241
	L167.278,294.241C160.667,300.853,151.878,304.493,142.529,304.493z M203.507,76.995L76.769,203.732
	c-1.274,1.274-1.464,2.762-1.464,3.536c0,0.772,0.19,2.261,1.464,3.535l62.225,62.225c1.275,1.274,2.763,1.465,3.536,1.465
	s2.261-0.19,3.536-1.465l126.785-126.786c1.76-9.099,0.543-39.146-1.94-67.324c-13.319-1.159-34.96-2.784-51.549-2.784
	C210.049,76.135,205.51,76.648,203.507,76.995z"/>
<circle cx="217.484" cy="132.314" r="24"/>
</svg>
