<?xml version="1.0" encoding="utf-8"?>
<!-- Generator: Adobe Illustrator 15.0.0, SVG Export Plug-In . SVG Version: 6.00 Build 0)  -->
<!DOCTYPE svg PUBLIC "-//W3C//DTD SVG 1.1//EN" "http://www.w3.org/Graphics/SVG/1.1/DTD/svg11.dtd">
<svg version="1.1" id="レイヤー_1" xmlns="http://www.w3.org/2000/svg" xmlns:xlink="http://www.w3.org/1999/xlink" x="0px"
	 y="0px" width="350px" height="350px" viewBox="0 0 350 350" enable-background="new 0 0 350 350" xml:space="preserve">
<g>
	<path d="M174.508,220.014c-20.875,0-40.259-10.119-54.584-28.494c-13.465-17.271-20.88-40.023-20.88-64.064
		c0-23.991,7.537-46.182,21.221-62.483c14.113-16.812,33.376-26.071,54.243-26.071s40.13,9.259,54.242,26.071
		c13.685,16.302,21.221,38.492,21.221,62.483c0,24.042-7.415,46.793-20.879,64.064C214.767,209.895,195.382,220.014,174.508,220.014
		z M174.508,68.901c-25.918,0-45.464,25.172-45.464,58.554c0,17.392,5.164,33.593,14.54,45.62
		c8.516,10.923,19.498,16.939,30.924,16.939c11.426,0,22.408-6.016,30.924-16.938c9.376-12.027,14.539-28.229,14.539-45.62
		C219.971,94.074,200.426,68.901,174.508,68.901z"/>
	<path d="M123.358,242.222c10.792,6.547,30.912,16.791,51.149,16.791c20.236,0,40.354-10.242,51.143-16.788
		c3.274,1.868,7.436,4.341,11.785,7.181c10.22,6.673,15.359,11.344,17.748,13.862c-0.363,2.422-1.04,4.274-2.025,5.531
		c-1.616,2.064-5.034,4.032-9.884,5.692c-16.2,5.545-42.858,6.009-68.774,6.009s-52.574-0.464-68.774-6.009
		c-4.85-1.66-8.268-3.628-9.884-5.692c-0.984-1.257-1.662-3.108-2.025-5.531c2.39-2.519,7.531-7.189,17.754-13.863
		C115.922,246.562,120.085,244.089,123.358,242.222 M123.677,210.246c-2.601,0-5.154,0.51-7.216,1.562
		c0,0-52.961,27.025-52.961,46.692c0,49,49.696,52,111,52s111-3,111-52c0-19.665-52.949-46.688-52.949-46.688
		c-2.062-1.052-4.617-1.562-7.218-1.562c-3.578,0-7.244,0.965-9.841,2.81c0,0-22.445,15.954-40.984,15.954
		c-18.541,0-40.989-15.956-40.989-15.956C130.923,211.211,127.255,210.246,123.677,210.246L123.677,210.246z"/>
</g>
</svg>
