<?xml version="1.0" encoding="utf-8"?>
<!-- Generator: Adobe Illustrator 15.0.0, SVG Export Plug-In . SVG Version: 6.00 Build 0)  -->
<!DOCTYPE svg PUBLIC "-//W3C//DTD SVG 1.1//EN" "http://www.w3.org/Graphics/SVG/1.1/DTD/svg11.dtd">
<svg version="1.1" id="レイヤー_1" xmlns="http://www.w3.org/2000/svg" xmlns:xlink="http://www.w3.org/1999/xlink" x="0px"
	 y="0px" width="350px" height="350px" viewBox="0 0 350 350" enable-background="new 0 0 350 350" xml:space="preserve">
<path d="M268.162,80.617C243.252,61.196,210.345,50.5,175.5,50.5c-34.844,0-67.752,10.696-92.662,30.117
	C56.826,100.897,42.5,128.202,42.5,157.5s14.326,56.603,40.338,76.884c4.447,3.467,9.153,6.65,14.075,9.55l-10.361,40.955
	c-1.614,6.382,1.121,13.07,6.744,16.492c2.41,1.467,5.109,2.187,7.794,2.187c3.581,0,7.138-1.279,9.953-3.774l41.585-36.858
	c7.484,1.034,15.129,1.565,22.871,1.565c34.845,0,67.752-10.695,92.662-30.116c26.012-20.281,40.338-47.586,40.338-76.884
	S294.174,100.897,268.162,80.617z M175.5,234.5c-8.292,0-16.356-0.741-24.087-2.131c-11.126-2.904-25.52-7.302-30.651-9.731
	c-0.299-0.142-0.607-0.251-0.913-0.371C91.386,208.551,72.5,184.644,72.5,157.5c0-42.458,46.206-77,103-77
	c56.794,0,103,34.542,103,77S232.294,234.5,175.5,234.5z"/>
</svg>
