<?xml version="1.0" encoding="utf-8"?>
<!-- Generator: Adobe Illustrator 15.0.0, SVG Export Plug-In . SVG Version: 6.00 Build 0)  -->
<!DOCTYPE svg PUBLIC "-//W3C//DTD SVG 1.1//EN" "http://www.w3.org/Graphics/SVG/1.1/DTD/svg11.dtd">
<svg version="1.1" id="レイヤー_1" xmlns="http://www.w3.org/2000/svg" xmlns:xlink="http://www.w3.org/1999/xlink" x="0px"
	 y="0px" width="350px" height="350px" viewBox="0 0 350 350" enable-background="new 0 0 350 350" xml:space="preserve">
<path d="M285.09,145.21c-0.008-0.013-0.017-0.025-0.025-0.038l-65.51-98.965c-0.006-0.009-0.012-0.019-0.019-0.028l-4.37-6.603
	H98.654c-19.299,0-35,15.701-35,35v201.488c0,19.299,15.701,35,35,35h153.983c19.299,0,35-15.701,35-35V149.059L285.09,145.21z
	 M222.106,104.412l22.613,34.162h-22.613V104.412z M252.638,281.064H98.654c-2.757,0-5-2.243-5-5V74.576c0-2.757,2.243-5,5-5h93.452
	v98.997h65.531v107.491C257.638,278.821,255.395,281.064,252.638,281.064z"/>
</svg>
