<?xml version="1.0" encoding="utf-8"?>
<!-- Generator: Adobe Illustrator 15.0.0, SVG Export Plug-In . SVG Version: 6.00 Build 0)  -->
<!DOCTYPE svg PUBLIC "-//W3C//DTD SVG 1.1//EN" "http://www.w3.org/Graphics/SVG/1.1/DTD/svg11.dtd">
<svg version="1.1" id="レイヤー_1" xmlns="http://www.w3.org/2000/svg" xmlns:xlink="http://www.w3.org/1999/xlink" x="0px"
	 y="0px" width="350px" height="350px" viewBox="0 0 350 350" enable-background="new 0 0 350 350" xml:space="preserve">
<path d="M289.602,60.578H65.615c-19.299,0-35,15.701-35,35v161.484c0,19.299,15.701,35,35,35h223.986c19.299,0,35-15.701,35-35
	V95.578C324.602,76.279,308.9,60.578,289.602,60.578z M75.248,91.385h177.969c5.522,0,10,4.477,10,10s-4.478,10-10,10H75.248
	c-5.523,0-10-4.477-10-10S69.725,91.385,75.248,91.385z M294.602,257.062c0,2.757-2.243,5-5,5H65.615c-2.757,0-5-2.243-5-5V140.074
	h233.986V257.062z M286.429,111.385c-5.522,0-10-4.477-10-9.999c0-5.523,4.478-10.001,10-10.001s10,4.478,10,10.001
	C296.429,106.908,291.951,111.385,286.429,111.385z"/>
</svg>
