<?xml version="1.0" encoding="utf-8"?>
<!-- Generator: Adobe Illustrator 15.0.0, SVG Export Plug-In . SVG Version: 6.00 Build 0)  -->
<!DOCTYPE svg PUBLIC "-//W3C//DTD SVG 1.1//EN" "http://www.w3.org/Graphics/SVG/1.1/DTD/svg11.dtd">
<svg version="1.1" id="レイヤー_1" xmlns="http://www.w3.org/2000/svg" xmlns:xlink="http://www.w3.org/1999/xlink" x="0px"
	 y="0px" width="350px" height="350px" viewBox="0 0 350 350" enable-background="new 0 0 350 350" xml:space="preserve">
<g>
	<path d="M175.391,304.365c-71.137,0-129.011-57.874-129.011-129.011S104.254,46.344,175.391,46.344s129.011,57.874,129.011,129.011
		S246.527,304.365,175.391,304.365z M175.391,76.344c-54.595,0-99.011,44.416-99.011,99.011s44.416,99.011,99.011,99.011
		s99.011-44.416,99.011-99.011S229.985,76.344,175.391,76.344z"/>
	<path d="M214.055,195.5h-55.498v-76.497c0-8.284,6.716-15,15-15s15,6.716,15,15V165.5h25.498c8.284,0,15,6.716,15,15
		S222.339,195.5,214.055,195.5z"/>
</g>
</svg>
