<?xml version="1.0" encoding="utf-8"?>
<!-- Generator: Adobe Illustrator 22.1.0, SVG Export Plug-In . SVG Version: 6.00 Build 0)  -->
<svg version="1.1" id="レイヤー_1" xmlns="http://www.w3.org/2000/svg" xmlns:xlink="http://www.w3.org/1999/xlink" x="0px"
	 y="0px" width="350px" height="350px" viewBox="0 0 350 350" style="enable-background:new 0 0 350 350;" xml:space="preserve">
<path d="M266.5,99.3h-35.2c-3.5-28.3-27.6-50.2-56.8-50.2c-29.2,0-53.3,22-56.8,50.2H82.5c-19.3,0-35,15.7-35,35v131.5
	c0,19.3,15.7,35,35,35h184c19.3,0,35-15.7,35-35V134.3C301.5,115,285.8,99.3,266.5,99.3z M174.5,79.1c12.6,0,23.2,8.6,26.3,20.2
	h-52.6C151.3,87.7,161.9,79.1,174.5,79.1z M82.5,129.3h184c2.8,0,5,2.2,5,5v34.6c-24.6,12-62.8,20.1-96.5,20.1
	c-34.7,0-72.6-8.2-97.5-20.7v-34.1C77.5,131.6,79.7,129.3,82.5,129.3z M266.5,270.8h-184c-2.8,0-5-2.2-5-5v-64.5
	c27.9,11.1,63.7,17.8,97.5,17.8c33.4,0,68.8-6.6,96.5-17.4v64.1C271.5,268.5,269.2,270.8,266.5,270.8z"/>
</svg>
