<?xml version="1.0" encoding="utf-8"?>
<!-- Generator: Adobe Illustrator 22.1.0, SVG Export Plug-In . SVG Version: 6.00 Build 0)  -->
<svg version="1.1" id="レイヤー_1" xmlns="http://www.w3.org/2000/svg" xmlns:xlink="http://www.w3.org/1999/xlink" x="0px"
	 y="0px" width="350px" height="350px" viewBox="0 0 350 350" style="enable-background:new 0 0 350 350;" xml:space="preserve">
<path d="M288.5,189c-3.3-6.3-7.7-10.4-11.2-13.7c-1.8-1.7-3.8-3.5-4.3-4.6c-11.7-24.1-18.2-44.6-23.4-61
	C237.8,72.1,229.2,45,175.1,45s-62.6,27.1-74.5,64.7c-5.2,16.4-11.6,36.8-23.4,61c-0.5,1.1-2.4,2.9-4.3,4.6
	c-3.5,3.3-7.9,7.4-11.2,13.7c-10.4,19.9-6,34.5-0.6,43.2c9.9,15.8,31.4,25.8,65.7,30.7c3.1,23.9,23.5,42.3,48.2,42.3
	c24.7,0,45.1-18.5,48.2-42.3c34.3-4.8,55.9-14.9,65.7-30.7C294.5,223.6,298.8,209,288.5,189z M175.1,275.3c-7,0-13.1-3.9-16.3-9.6
	c8.5,0.3,14.6,0.2,16.3,0.2c0.7,0,2.2,0,4.4,0c2.9,0,7,0,11.9-0.2C188.2,271.4,182.1,275.3,175.1,275.3z M263.6,216.4
	c-1.8,2.8-10.3,12.3-46.3,17.1c-21.6,2.9-41.6,2.4-41.8,2.4c-0.3,0-0.5,0-0.8,0c-0.2,0-20.2,0.5-41.8-2.4
	c-36-4.8-44.5-14.3-46.3-17.1c-0.8-1.3-2.9-4.6,1.8-13.5c0.9-1.8,2.9-3.6,5.1-5.7c3.5-3.3,7.8-7.3,10.7-13.4
	c12.7-26.1,19.5-47.7,25-65.1c5.3-16.6,9.1-28.7,15-35.2c3.9-4.2,10.5-8.5,30.9-8.5s27,4.3,30.9,8.5c6,6.5,9.8,18.6,15,35.2
	c5.5,17.4,12.3,38.9,25,65.1c2.9,6.1,7.3,10.1,10.7,13.4c2.3,2.1,4.2,4,5.1,5.7C266.5,211.8,264.4,215.1,263.6,216.4z"/>
</svg>
