<?xml version="1.0" encoding="utf-8"?>
<!-- Generator: Adobe Illustrator 22.1.0, SVG Export Plug-In . SVG Version: 6.00 Build 0)  -->
<svg version="1.1" id="レイヤー_1" xmlns="http://www.w3.org/2000/svg" xmlns:xlink="http://www.w3.org/1999/xlink" x="0px"
	 y="0px" width="350px" height="350px" viewBox="0 0 350 350" style="enable-background:new 0 0 350 350;" xml:space="preserve">
<path d="M174.4,75.5c5.2,0,10.5,0.4,15.6,1.2l5.8,23.6c13.2,3.8,25.4,11.1,35.1,21.5l22.9-6.6c2.3,3.1,4.5,6.4,6.5,9.9
	c3,5.2,5.5,10.5,7.4,16l-17.7,17c2.7,12.4,2.3,25-1,36.9l17.3,16.7c-3.8,9.4-9,18.3-15.7,26.3l-23.5-6.8c-4.2,3.9-8.9,7.4-14.1,10.4
	c-5.2,3-10.6,5.3-16.1,7l-5.9,23.8c-5.5,0.9-11.1,1.4-16.6,1.4c-4.7,0-9.3-0.3-14-1l-5.8-23.3c-11.9-3.1-23.1-9.1-32.5-17.6
	l-23.6,6.8c-3.7-4.4-7.1-9.2-10.1-14.4c-2-3.5-3.8-7-5.3-10.6l17.1-16.5c-4.1-13.6-4.3-27.8-1-41.1L82,139.1
	c3.4-8.7,7.9-17,13.7-24.6l23,6.6c4.9-5.2,10.7-9.7,17.2-13.5c6.5-3.8,13.3-6.4,20.3-8.1l5.7-23.2C166.1,75.7,170.3,75.5,174.4,75.5
	 M174.4,45.5C174.4,45.5,174.4,45.5,174.4,45.5c-5.5,0-11,0.4-16.4,1c-12.3,1.6-22.3,10.5-25.3,22.6l-1.8,7.5
	c-3.4,1.5-6.8,3.2-10,5.1c-3.3,1.9-6.4,3.9-9.5,6.1l-7.4-2.1c-2.8-0.8-5.6-1.2-8.3-1.2c-9.2,0-18.1,4.2-23.9,11.8
	c-7.4,9.8-13.4,20.5-17.9,32c-4.3,11.3-1.5,24,7.2,32.4l6.3,6c-0.5,6.7-0.4,13.4,0.4,20.1l-5.3,5.1c-9,8.7-11.7,22-6.8,33.4
	c2,4.7,4.4,9.4,6.9,13.8c3.8,6.6,8.2,12.9,13.1,18.7c5.8,6.9,14.2,10.7,22.9,10.7c2.8,0,5.6-0.4,8.3-1.2l9.1-2.6
	c4.3,2.7,8.7,5.2,13.3,7.3l1.9,7.9c2.9,11.9,12.8,20.8,24.9,22.5c6,0.9,12.1,1.3,18.2,1.3c7.3,0,14.5-0.6,21.7-1.8
	c11.8-2,21.2-10.8,24.1-22.4l2.2-8.9c1.9-1,3.8-2,5.6-3c1.8-1.1,3.6-2.2,5.4-3.4l8.8,2.6c2.8,0.8,5.6,1.2,8.3,1.2
	c8.8,0,17.3-3.9,23.1-10.8c8.5-10.3,15.4-21.8,20.4-34.2c4.6-11.4,1.8-24.3-7-32.8l-5.9-5.6c0.5-5,0.6-10.1,0.3-15.2l6.9-6.6
	c8.5-8.2,11.4-20.7,7.4-31.8c-2.6-7.1-5.8-14.1-9.7-20.8c-2.6-4.4-5.4-8.8-8.5-12.9c-5.8-7.7-14.7-12-24-12c-2.8,0-5.6,0.4-8.3,1.2
	l-7.1,2c-5.4-4-11.1-7.5-17.2-10.4l-2.1-8.5c-2.9-11.7-12.5-20.5-24.4-22.4C188,46,181.2,45.5,174.4,45.5L174.4,45.5L174.4,45.5z"/>
<path d="M174.9,217.3c-23.7,0-42.9-19.3-42.9-42.9c0-23.7,19.3-42.9,42.9-42.9s42.9,19.3,42.9,42.9
	C217.8,198,198.6,217.3,174.9,217.3z M174.9,161.4c-7.1,0-12.9,5.8-12.9,12.9c0,7.1,5.8,12.9,12.9,12.9s12.9-5.8,12.9-12.9
	C187.8,167.2,182,161.4,174.9,161.4z"/>
</svg>
