<?xml version="1.0" encoding="utf-8"?>
<!-- Generator: Adobe Illustrator 22.1.0, SVG Export Plug-In . SVG Version: 6.00 Build 0)  -->
<svg version="1.1" id="レイヤー_1" xmlns="http://www.w3.org/2000/svg" xmlns:xlink="http://www.w3.org/1999/xlink" x="0px"
	 y="0px" width="350px" height="350px" viewBox="0 0 350 350" style="enable-background:new 0 0 350 350;" xml:space="preserve">
<g>
	<path d="M250.2,168.8l-56.6-85.5l0,0l-4.4-6.6H87.5c-17.8,0-32.3,14.5-32.3,32.3v174.1c0,17.8,14.5,32.3,32.3,32.3h133.1
		c17.8,0,32.3-14.5,32.3-32.3V172.7L250.2,168.8C250.3,168.9,250.2,168.9,250.2,168.8z M196.2,141.5l13.7,20.7h-13.7V141.5z
		 M220.5,285.4h-133c-1.3,0-2.3-1-2.3-2.3V109c0-1.3,1-2.3,2.3-2.3h78.7v85.5h56.6V283C222.8,284.3,221.8,285.4,220.5,285.4z"/>
	<path d="M213.9,35.3h-96.2c-8.3,0-15,6.7-15,15s6.7,15,15,15h80.8l66.6,92.7v95.8c0,8.3,6.7,15,15,15s15-6.7,15-15V148.3
		L213.9,35.3z"/>
</g>
</svg>
