<?xml version="1.0" encoding="utf-8"?>
<!-- Generator: Adobe Illustrator 22.1.0, SVG Export Plug-In . SVG Version: 6.00 Build 0)  -->
<svg version="1.1" id="レイヤー_1" xmlns="http://www.w3.org/2000/svg" xmlns:xlink="http://www.w3.org/1999/xlink" x="0px"
	 y="0px" width="350px" height="350px" viewBox="0 0 350 350" style="enable-background:new 0 0 350 350;" xml:space="preserve">
<g>
	<path d="M236.9,101.7H111.1c-16.7,0-30.4,13.6-30.4,30.4v0.2L86,272.4c0.1,16.6,13.7,30.1,30.4,30.1h115.4
		c16.6,0,30.2-13.5,30.4-30.1l5.2-139.9V132C267.3,115.3,253.6,101.7,236.9,101.7z M236,271.6v0.5c0,2.4-1.9,4.3-4.3,4.3H116.3
		c-2.4,0-4.3-1.9-4.3-4.3v-0.2l-5.2-140c0.1-2.3,2-4.2,4.3-4.2h125.8c2.3,0,4.2,1.9,4.3,4.2L236,271.6z"/>
	<path d="M174,153.5c-4.8,0-8.7,3.9-8.7,8.7v80.5c0,4.8,3.9,8.7,8.7,8.7s8.7-3.9,8.7-8.7v-80.5C182.7,157.4,178.8,153.5,174,153.5z"
		/>
	<path d="M142.8,153.5c-4.8,0-8.7,3.9-8.7,8.7v80.5c0,4.8,3.9,8.7,8.7,8.7s8.7-3.9,8.7-8.7v-80.5
		C151.5,157.4,147.6,153.5,142.8,153.5z"/>
	<path d="M205.3,153.5c-4.8,0-8.7,3.9-8.7,8.7v80.5c0,4.8,3.9,8.7,8.7,8.7s8.7-3.9,8.7-8.7v-80.5C213.9,157.4,210,153.5,205.3,153.5
		z"/>
	<path d="M95.2,92.9H256c7.2,0,13-5.8,13-13s-5.8-13-13-13h-67.4V55c0-7.2-5.8-13-13-13s-13,5.8-13,13v11.9H95.2
		c-7.2,0-13,5.8-13,13S88,92.9,95.2,92.9z"/>
</g>
</svg>
