<?xml version="1.0" encoding="utf-8"?>
<!-- Generator: Adobe Illustrator 22.1.0, SVG Export Plug-In . SVG Version: 6.00 Build 0)  -->
<svg version="1.1" id="レイヤー_1" xmlns="http://www.w3.org/2000/svg" xmlns:xlink="http://www.w3.org/1999/xlink" x="0px"
	 y="0px" width="350px" height="350px" viewBox="0 0 350 350" style="enable-background:new 0 0 350 350;" xml:space="preserve">
<g>
	<path d="M284.4,145C284.3,145,284.3,145,284.4,145L219,46.2l0,0l-4.4-6.6H98.3c-19.3,0-34.9,15.7-34.9,34.9v201.1
		c0,19.3,15.7,34.9,34.9,34.9H252c19.3,0,34.9-15.7,34.9-34.9V148.8L284.4,145z M221.5,104.3l22.6,34.1h-22.6V104.3z M252,280.6
		H98.3c-2.8,0-5-2.2-5-5V74.5c0-2.8,2.2-5,5-5h93.3v98.8H257v107.3C257,278.3,254.7,280.6,252,280.6z"/>
	<path d="M126.2,168h33.9c5.5,0,10-4.5,10-10s-4.5-10-10-10h-33.9c-5.5,0-10,4.5-10,10C116.2,163.5,120.7,168,126.2,168z"/>
	<path d="M126.2,128.1h33.9c5.5,0,10-4.5,10-10s-4.5-10-10-10h-33.9c-5.5,0-10,4.5-10,10C116.2,123.6,120.7,128.1,126.2,128.1z"/>
	<path d="M221,190h-93.8c-5.5,0-10,4.5-10,10s4.5,10,10,10H221c5.5,0,10-4.5,10-10C231,194.4,226.5,190,221,190z"/>
	<path d="M221,229.9h-93.8c-5.5,0-10,4.5-10,10s4.5,10,10,10H221c5.5,0,10-4.5,10-10S226.5,229.9,221,229.9z"/>
</g>
</svg>
