<?xml version="1.0" encoding="utf-8"?>
<!-- Generator: Adobe Illustrator 22.1.0, SVG Export Plug-In . SVG Version: 6.00 Build 0)  -->
<svg version="1.1" id="レイヤー_1" xmlns="http://www.w3.org/2000/svg" xmlns:xlink="http://www.w3.org/1999/xlink" x="0px"
	 y="0px" width="350px" height="350px" viewBox="0 0 350 350" style="enable-background:new 0 0 350 350;" xml:space="preserve">
<g>
	<path d="M247.7,122.3h-22V84.2c0-28-22.8-50.7-50.7-50.7s-50.7,22.8-50.7,50.7c0,7.3,6,13.3,13.3,13.3s13.3-6,13.3-13.3
		c0-13.3,10.8-24.1,24.1-24.1s24.1,10.8,24.1,24.1v38.1h-96.9c-17.1,0-31,13.9-31,31V270c0,17.1,13.9,31,31,31h145.4
		c17.1,0,31-13.9,31-31V153.4C278.7,136.3,264.8,122.3,247.7,122.3z M252.1,270c0,2.4-2,4.4-4.4,4.4H102.2c-2.4,0-4.4-2-4.4-4.4
		V153.4c0-2.4,2-4.4,4.4-4.4h145.4c2.4,0,4.4,2,4.4,4.4V270H252.1z"/>
	<path d="M174.9,171.9c-11.8,0-21.3,9.5-21.3,21.3c0,6.7,3.1,12.7,8,16.6v31.3c0,7.3,6,13.3,13.3,13.3s13.3-6,13.3-13.3v-31.3
		c4.9-3.9,8-9.9,8-16.6C196.2,181.4,186.7,171.9,174.9,171.9z"/>
</g>
</svg>
