<?xml version="1.0" encoding="utf-8"?>
<!-- Generator: Adobe Illustrator 22.1.0, SVG Export Plug-In . SVG Version: 6.00 Build 0)  -->
<svg version="1.1" id="レイヤー_1" xmlns="http://www.w3.org/2000/svg" xmlns:xlink="http://www.w3.org/1999/xlink" x="0px"
	 y="0px" width="350px" height="350px" viewBox="0 0 350 350" style="enable-background:new 0 0 350 350;" xml:space="preserve">
<path d="M145,294.7c-2.6,0-5.3-0.2-8-0.5c-17.8-2-35.3-10.8-49.3-24.8c-13.9-13.9-22.8-31.5-25-49.4c-2.4-19.3,3.2-36.7,15.6-49.1
	l101-101c20.7-20.7,55.3-19.7,77.1,2.1c21.8,21.8,22.8,56.4,2.1,77.1l-97.1,97.1c-10.8,10.8-31.3,8.6-44.7-4.8
	c-13.6-13.6-16.1-34.8-5.5-45.4l94.3-94.3c5.9-5.9,15.4-5.9,21.2,0c5.9,5.9,5.9,15.4,0,21.2l-91.9,91.9c0.4,1.4,1.3,3.5,3.1,5.4
	c1.6,1.6,3.3,2.3,4.4,2.7l95-95c9-9,8-24.5-2.1-34.7c-10.1-10.1-25.7-11.1-34.7-2.1l-101,101c-12.6,12.6-8.3,38.3,9.4,56.1
	c17.8,17.8,42.8,21.8,55.6,9l98.2-98.2c5.9-5.9,15.4-5.9,21.2,0c5.9,5.9,5.9,15.4,0,21.2l-98.2,98.2
	C175.2,289,160.9,294.7,145,294.7z"/>
</svg>
