<?xml version="1.0" encoding="utf-8"?>
<!-- Generator: Adobe Illustrator 22.1.0, SVG Export Plug-In . SVG Version: 6.00 Build 0)  -->
<svg version="1.1" id="レイヤー_1" xmlns="http://www.w3.org/2000/svg" xmlns:xlink="http://www.w3.org/1999/xlink" x="0px"
	 y="0px" width="350px" height="350px" viewBox="0 0 350 350" style="enable-background:new 0 0 350 350;" xml:space="preserve">
<path d="M218.8,110.4L175,154.3l-43.8-43.8c-5.9-5.9-15.3-5.9-21.2,0s-5.9,15.3,0,21.2l43.8,43.8l-43.8,43.8
	c-5.9,5.9-5.9,15.3,0,21.2s15.3,5.9,21.2,0l43.8-43.8l43.8,43.8c5.9,5.9,15.3,5.9,21.2,0s5.9-15.3,0-21.2l-43.8-43.8l43.8-43.8
	c5.9-5.9,5.9-15.3,0-21.2S224.7,104.6,218.8,110.4z"/>
</svg>
