<?xml version="1.0" encoding="utf-8"?>
<!-- Generator: Adobe Illustrator 22.1.0, SVG Export Plug-In . SVG Version: 6.00 Build 0)  -->
<svg version="1.1" id="レイヤー_1" xmlns="http://www.w3.org/2000/svg" xmlns:xlink="http://www.w3.org/1999/xlink" x="0px"
	 y="0px" width="350px" height="350px" viewBox="0 0 350 350" style="enable-background:new 0 0 350 350;" xml:space="preserve">
<g>
	<path d="M175.4,304.2c-71.1,0-129-57.9-129-129s57.9-129,129-129c71.1,0,129,57.9,129,129S246.5,304.2,175.4,304.2z M175.4,76.1
		c-54.6,0-99,44.4-99,99s44.4,99,99,99c54.6,0,99-44.4,99-99S230,76.1,175.4,76.1z"/>
</g>
<path d="M175.4,198c-8.3,0-15-6.7-15-15v-52c0-8.3,6.7-15,15-15c8.3,0,15,6.7,15,15v52C190.4,191.2,183.7,198,175.4,198z"/>
<path d="M175.4,234.6c-0.5,0-1,0-1.5-0.1c-0.5-0.1-1-0.1-1.5-0.2c-0.5-0.1-0.9-0.2-1.4-0.4c-0.5-0.1-0.9-0.3-1.4-0.5
	c-0.5-0.2-0.9-0.4-1.3-0.6c-0.4-0.2-0.9-0.5-1.3-0.8c-0.4-0.3-0.8-0.6-1.2-0.9c-0.4-0.3-0.8-0.6-1.1-1c-0.4-0.3-0.7-0.7-1-1.1
	c-0.3-0.4-0.6-0.8-0.9-1.2s-0.5-0.8-0.8-1.3s-0.4-0.9-0.6-1.3c-0.2-0.5-0.4-0.9-0.5-1.4c-0.1-0.5-0.3-1-0.4-1.4
	c-0.1-0.5-0.2-1-0.2-1.5c-0.1-0.5-0.1-1-0.1-1.5c0-0.5,0-1,0.1-1.5c0-0.5,0.1-1,0.2-1.5c0.1-0.5,0.2-1,0.4-1.4
	c0.1-0.5,0.3-0.9,0.5-1.4c0.2-0.5,0.4-0.9,0.6-1.3s0.5-0.9,0.8-1.3c0.3-0.4,0.6-0.8,0.9-1.2c0.3-0.4,0.6-0.8,1-1.1
	c0.3-0.3,0.7-0.7,1.1-1c0.4-0.3,0.8-0.6,1.2-0.9c0.4-0.3,0.8-0.5,1.3-0.8c0.4-0.2,0.9-0.4,1.3-0.6c0.4-0.2,0.9-0.3,1.4-0.5
	c0.5-0.1,1-0.3,1.4-0.4c0.5-0.1,1-0.2,1.5-0.2c1-0.1,2-0.1,2.9,0c0.5,0,1,0.1,1.5,0.2c0.5,0.1,1,0.2,1.4,0.4
	c0.5,0.1,0.9,0.3,1.4,0.5c0.4,0.2,0.9,0.4,1.3,0.6c0.4,0.2,0.9,0.5,1.3,0.8c0.4,0.3,0.8,0.6,1.2,0.9c0.4,0.3,0.8,0.6,1.1,1
	c0.3,0.3,0.7,0.7,1,1.1c0.3,0.4,0.6,0.8,0.9,1.2c0.3,0.4,0.5,0.8,0.8,1.3c0.2,0.4,0.4,0.9,0.6,1.3c0.2,0.5,0.4,0.9,0.5,1.4
	c0.1,0.5,0.3,1,0.4,1.4c0.1,0.5,0.2,1,0.2,1.5s0.1,1,0.1,1.5c0,0.5,0,1-0.1,1.5c0,0.5-0.1,1-0.2,1.5c-0.1,0.5-0.2,1-0.4,1.4
	c-0.1,0.5-0.3,0.9-0.5,1.4c-0.2,0.5-0.4,0.9-0.6,1.3c-0.2,0.4-0.5,0.8-0.8,1.3c-0.3,0.4-0.6,0.8-0.9,1.2c-0.3,0.4-0.6,0.8-1,1.1
	c-0.3,0.3-0.7,0.7-1.1,1c-0.4,0.3-0.8,0.6-1.2,0.9c-0.4,0.3-0.8,0.5-1.3,0.8c-0.4,0.2-0.9,0.4-1.3,0.6c-0.5,0.2-0.9,0.4-1.4,0.5
	c-0.5,0.1-1,0.3-1.4,0.4c-0.5,0.1-1,0.2-1.5,0.2C176.4,234.6,175.9,234.6,175.4,234.6z"/>
</svg>
