<?xml version="1.0" encoding="utf-8"?>
<!-- Generator: Adobe Illustrator 22.1.0, SVG Export Plug-In . SVG Version: 6.00 Build 0)  -->
<svg version="1.1" id="レイヤー_1" xmlns="http://www.w3.org/2000/svg" xmlns:xlink="http://www.w3.org/1999/xlink" x="0px"
	 y="0px" width="350px" height="350px" viewBox="0 0 350 350" style="enable-background:new 0 0 350 350;" xml:space="preserve">
<path d="M174.7,274.8c-2.6,0-5.2-0.7-7.6-2c-1.2-0.7-29.9-17.5-59.2-41.6c-41.6-34.2-63-65.5-63.7-93.1
	C43.6,112.5,60.5,96,74.8,86.7c24.6-16,53.9-7.9,74.1,1.8c10.4,5,19.4,10.8,25.8,15.3c6.4-4.5,15.4-10.3,25.8-15.3
	c20.2-9.7,49.5-17.9,74.1-1.8c14.3,9.3,31.2,25.8,30.5,51.4c-0.7,27.6-22.1,58.9-63.7,93.1c-29.3,24.1-58,40.9-59.2,41.6
	C179.9,274.1,177.3,274.8,174.7,274.8z M167.1,246.9L167.1,246.9L167.1,246.9z M106.5,107.7c-5.6,0-10.9,1.2-15.4,4.1
	c-15.5,10.1-17.1,19.4-16.9,25.5c0.3,10.4,7.5,33.4,52.8,70.7c18.8,15.4,37.6,27.8,47.7,34.2c10.2-6.4,29.1-18.9,48-34.4
	c33.4-27.5,52-52.5,52.5-70.4c0.2-6.1-1.4-15.4-16.9-25.5c-12.8-8.3-31.1-2.7-44.3,3.5c-16.5,7.8-29.4,18.6-29.5,18.7
	c-5.6,4.7-13.8,4.7-19.4,0C155.3,125.9,128.2,107.7,106.5,107.7z"/>
</svg>
