<?xml version="1.0" encoding="utf-8"?>
<!-- Generator: Adobe Illustrator 22.1.0, SVG Export Plug-In . SVG Version: 6.00 Build 0)  -->
<svg version="1.1" id="レイヤー_1" xmlns="http://www.w3.org/2000/svg" xmlns:xlink="http://www.w3.org/1999/xlink" x="0px"
	 y="0px" width="350px" height="350px" viewBox="0 0 350 350" style="enable-background:new 0 0 350 350;" xml:space="preserve">
<g>
	<path d="M165.7,226.7L165.7,226.7l9.2,9.2l9.2-9.2l0,0l64.1-64.1c5.1-5.1,5.1-13.3,0-18.4c-5.1-5.1-13.3-5.1-18.4,0l-41.9,41.9
		V81.5c0-7.2-5.8-13-13-13s-13,5.8-13,13v104.7L120,144.3c-5.1-5.1-13.3-5.1-18.4,0s-5.1,13.3,0,18.4L165.7,226.7z"/>
	<path d="M239,249.1H110.9c-7.2,0-13,5.8-13,13c0,7.2,5.8,13,13,13H239c7.2,0,13-5.8,13-13S246.2,249.1,239,249.1z"/>
</g>
</svg>
