<?xml version="1.0" encoding="utf-8"?>
<!-- Generator: Adobe Illustrator 22.1.0, SVG Export Plug-In . SVG Version: 6.00 Build 0)  -->
<svg version="1.1" id="レイヤー_1" xmlns="http://www.w3.org/2000/svg" xmlns:xlink="http://www.w3.org/1999/xlink" x="0px"
	 y="0px" width="350px" height="350px" viewBox="0 0 350 350" style="enable-background:new 0 0 350 350;" xml:space="preserve">
<g>
	<path d="M175.4,304.2c-71.1,0-129-57.9-129-129s57.9-129,129-129c71.1,0,129,57.9,129,129S246.5,304.2,175.4,304.2z M175.4,76.1
		c-54.6,0-99,44.4-99,99s44.4,99,99,99c54.6,0,99-44.4,99-99S230,76.1,175.4,76.1z"/>
</g>
<path d="M204.7,184.8h-19.3v-2.2l2.2-3.8h17.1c5.5,0,10-4.5,10-10s-4.5-10-10-10H199l12.7-22.2c2.7-4.8,1.1-10.9-3.7-13.6
	c-4.8-2.7-10.9-1.1-13.6,3.7L176,158.8h-1.2l-18.4-32.1c-2.7-4.8-8.9-6.5-13.6-3.7c-3.2,1.8-5,5.2-5,8.7c0,1.7,0.4,3.4,1.3,5
	l12.7,22.2h-7.1c-5.5,0-10,4.5-10,10s4.5,10,10,10h18.5l2.2,3.8v2.2h-20.7c-5.5,0-10,4.5-10,10s4.5,10,10,10h20.7v13.9
	c0,5.5,4.5,10,10,10s10-4.5,10-10v-13.9h19.3c5.5,0,10-4.5,10-10S210.2,184.8,204.7,184.8z"/>
</svg>
