<?xml version="1.0" encoding="utf-8"?>
<!-- Generator: Adobe Illustrator 22.1.0, SVG Export Plug-In . SVG Version: 6.00 Build 0)  -->
<svg version="1.1" id="レイヤー_1" xmlns="http://www.w3.org/2000/svg" xmlns:xlink="http://www.w3.org/1999/xlink" x="0px"
	 y="0px" width="350px" height="350px" viewBox="0 0 350 350" style="enable-background:new 0 0 350 350;" xml:space="preserve">
<path d="M279.9,73c-3.6-2.8-8.4-3.8-12.9-2.7c-15.8,4-45.4,9.9-57.6,8.9c-13.1-1-24.8-4.9-36.2-8.7c-12.9-4.3-25.2-8.3-37.8-7.6
	c-15.9,0.9-29.7,3.7-41.2,8.3V67c0-8.3-6.7-15-15-15s-15,6.7-15,15v216c0,8.3,6.7,15,15,15s15-6.7,15-15v-51.7
	c4.6-3.8,16.6-11,42.9-12.5c6.9-0.4,16.1,2.6,26.7,6.1c12.5,4.1,26.6,8.8,43.3,10.1c1.6,0.1,3.3,0.2,5.2,0.2
	c22.1,0,57.9-8.8,62.2-9.9c6.7-1.7,11.4-7.7,11.4-14.5V84.9C285.7,80.2,283.6,75.9,279.9,73z M255.7,198.8c-16,3.5-36.6,7-46.3,6.2
	c-13.1-1-24.8-4.9-36.2-8.7c-12.9-4.3-25.2-8.3-37.8-7.6c-15.9,0.9-29.7,3.7-41.2,8.3v-91.7c4.6-3.8,16.6-11,42.9-12.5
	c6.9-0.4,16.1,2.6,26.7,6.1c12.5,4.1,26.6,8.8,43.3,10.1c12.9,1,33.6-2.4,48.7-5.5V198.8z"/>
</svg>
