<?xml version="1.0" encoding="utf-8"?>
<!-- Generator: Adobe Illustrator 22.1.0, SVG Export Plug-In . SVG Version: 6.00 Build 0)  -->
<svg version="1.1" id="レイヤー_1" xmlns="http://www.w3.org/2000/svg" xmlns:xlink="http://www.w3.org/1999/xlink" x="0px"
	 y="0px" width="350px" height="350px" viewBox="0 0 350 350" style="enable-background:new 0 0 350 350;" xml:space="preserve">
<path d="M258.3,298.3c-2.8,0-5.5-0.8-8-2.3l-75.1-47l-75.1,47c-4.6,2.9-10.5,3-15.2,0.4c-4.8-2.6-7.7-7.7-7.7-13.1V98.7
	c0-27.4,22.3-49.6,49.6-49.6h96.9c27.4,0,49.6,22.3,49.6,49.6v184.6c0,5.5-3,10.5-7.7,13.1C263.3,297.7,260.8,298.3,258.3,298.3z
	 M126.8,79.1c-10.8,0-19.6,8.8-19.6,19.6v157.6l60.1-37.6c4.9-3,11-3,15.9,0l60.1,37.6V98.7c0-10.8-8.8-19.6-19.6-19.6H126.8z"/>
</svg>
